<svg width="128" height="128" viewBox="0 0 128 128" fill="none" xmlns="http://www.w3.org/2000/svg">
  <!-- Background Gradient Circle -->
  <defs>
    <linearGradient id="grad" x1="0%" y1="0%" x2="100%" y2="100%">
      <stop offset="0%" style="stop-color:#FF512F;stop-opacity:1" />
      <stop offset="100%" style="stop-color:#DD2476;stop-opacity:1" />
    </linearGradient>
  </defs>
  <circle cx="64" cy="64" r="60" fill="url(#grad)"/>
  
  <!-- Book -->
  <path d="M40 35C40 32.2386 42.2386 30 45 30H85C87.7614 30 90 32.2386 90 35V90C90 92.7614 87.7614 95 85 95H45C42.2386 95 40 92.7614 40 90V35Z" fill="white"/>
  <path d="M40 85H90V90C90 92.7614 87.7614 95 85 95H45C42.2386 95 40 92.7614 40 90V85Z" fill="#F0F0F0"/>
  <rect x="48" y="42" width="34" height="4" rx="2" fill="#FF512F" fill-opacity="0.3"/>
  <rect x="48" y="52" width="34" height="4" rx="2" fill="#FF512F" fill-opacity="0.3"/>
  <rect x="48" y="62" width="24" height="4" rx="2" fill="#FF512F" fill-opacity="0.3"/>

  <!-- Headphones -->
  <path d="M30 75C30 55.1177 45.2223 39 64 39C82.7777 39 98 55.1177 98 75" stroke="#333" stroke-width="8" stroke-linecap="round"/>
  <rect x="22" y="70" width="16" height="25" rx="8" fill="#333"/>
  <rect x="90" y="70" width="16" height="25" rx="8" fill="#333"/>
  
  <!-- Accent on Headphones -->
  <circle cx="30" cy="82.5" r="4" fill="#FF512F"/>
  <circle cx="98" cy="82.5" r="4" fill="#FF512F"/>
</svg>